<svg width="48" height="48" viewBox="0 0 48 48" fill="none" xmlns="http://www.w3.org/2000/svg">
<path d="M38.25 31.5H32.25C31.8358 31.5 31.5 31.8358 31.5 32.25V38.25C31.5 38.6642 31.8358 39 32.25 39H38.25C38.6642 39 39 38.6642 39 38.25V32.25C39 31.8358 38.6642 31.5 38.25 31.5Z" fill="black"/>
<path d="M30.75 25.5H26.25C25.8358 25.5 25.5 25.8358 25.5 26.25V30.75C25.5 31.1642 25.8358 31.5 26.25 31.5H30.75C31.1642 31.5 31.5 31.1642 31.5 30.75V26.25C31.5 25.8358 31.1642 25.5 30.75 25.5Z" fill="black"/>
<path d="M44.25 39H39.75C39.3358 39 39 39.3358 39 39.75V44.25C39 44.6642 39.3358 45 39.75 45H44.25C44.6642 45 45 44.6642 45 44.25V39.75C45 39.3358 44.6642 39 44.25 39Z" fill="black"/>
<path d="M44.25 25.5H41.25C40.8358 25.5 40.5 25.8358 40.5 26.25V29.25C40.5 29.6642 40.8358 30 41.25 30H44.25C44.6642 30 45 29.6642 45 29.25V26.25C45 25.8358 44.6642 25.5 44.25 25.5Z" fill="black"/>
<path d="M29.25 40.5H26.25C25.8358 40.5 25.5 40.8358 25.5 41.25V44.25C25.5 44.6642 25.8358 45 26.25 45H29.25C29.6642 45 30 44.6642 30 44.25V41.25C30 40.8358 29.6642 40.5 29.25 40.5Z" fill="black"/>
<path d="M38.25 9H32.25C31.8358 9 31.5 9.33579 31.5 9.75V15.75C31.5 16.1642 31.8358 16.5 32.25 16.5H38.25C38.6642 16.5 39 16.1642 39 15.75V9.75C39 9.33579 38.6642 9 38.25 9Z" fill="black"/>
<path d="M42 4.5H28.5C27.6716 4.5 27 5.17157 27 6V19.5C27 20.3284 27.6716 21 28.5 21H42C42.8284 21 43.5 20.3284 43.5 19.5V6C43.5 5.17157 42.8284 4.5 42 4.5Z" stroke="black" stroke-width="4" stroke-linecap="round" stroke-linejoin="round"/>
<path d="M15.75 9H9.75C9.33579 9 9 9.33579 9 9.75V15.75C9 16.1642 9.33579 16.5 9.75 16.5H15.75C16.1642 16.5 16.5 16.1642 16.5 15.75V9.75C16.5 9.33579 16.1642 9 15.75 9Z" fill="black"/>
<path d="M19.5 4.5H6C5.17157 4.5 4.5 5.17157 4.5 6V19.5C4.5 20.3284 5.17157 21 6 21H19.5C20.3284 21 21 20.3284 21 19.5V6C21 5.17157 20.3284 4.5 19.5 4.5Z" stroke="black" stroke-width="4" stroke-linecap="round" stroke-linejoin="round"/>
<path d="M15.75 31.5H9.75C9.33579 31.5 9 31.8358 9 32.25V38.25C9 38.6642 9.33579 39 9.75 39H15.75C16.1642 39 16.5 38.6642 16.5 38.25V32.25C16.5 31.8358 16.1642 31.5 15.75 31.5Z" fill="black"/>
<path d="M19.5 27H6C5.17157 27 4.5 27.6716 4.5 28.5V42C4.5 42.8284 5.17157 43.5 6 43.5H19.5C20.3284 43.5 21 42.8284 21 42V28.5C21 27.6716 20.3284 27 19.5 27Z" stroke="black" stroke-width="4" stroke-linecap="round" stroke-linejoin="round"/>
</svg>
